<svg width="78" height="120" viewBox="0 0 78 120" fill="none" xmlns="http://www.w3.org/2000/svg">
<path d="M39.75 12C57.6266 12 71.9998 27.5782 72 46.5146C72 53.5884 69.9943 60.4251 66.1777 66.2588L43 106.406C42.3246 107.582 41.0912 108.285 39.75 108.285C38.4088 108.285 37.1745 107.583 36.499 106.407V106.406L13.2998 66.2275C9.50694 60.4347 7.5 53.5924 7.5 46.5146C7.50018 27.5782 21.8734 12 39.75 12Z" fill="url(#paint0_linear_2594_28117)" stroke="white" stroke-width="3"/>
<path d="M48.2863 66.5308H34.9958V35.6096C34.9958 35.6096 35.0563 35.6231 35.0806 35.6231H47.7654C48.0561 35.6231 48.2863 35.3673 48.2863 35.0442V34.5058C48.2863 34.1827 48.0561 33.9269 47.7654 33.9269H35.0806C35.0806 33.9269 35.02 33.9404 34.9958 33.9404V32.9846C34.9958 32.7154 34.8019 32.5 34.5596 32.5C34.3173 32.5 34.1235 32.7154 34.1235 32.9846V66.5308H32.9362C32.6938 66.5308 32.5 66.7462 32.5 67.0154C32.5 67.2846 32.6938 67.5 32.9362 67.5H48.2863C48.5287 67.5 48.7225 67.2846 48.7225 67.0154C48.7225 66.7462 48.5287 66.5308 48.2863 66.5308Z" fill="white"/>
<path d="M46.6748 36.2693H37.4187C36.51 36.2693 35.771 37.0905 35.771 38.1001V50.2617C35.771 51.2713 36.51 52.0924 37.4187 52.0924H46.6748C47.5835 52.0924 48.3225 51.2713 48.3225 50.2617V38.1001C48.3225 37.0905 47.5835 36.2693 46.6748 36.2693Z" fill="white"/>
<defs>
<linearGradient id="paint0_linear_2594_28117" x1="39.75" y1="106.785" x2="39.75" y2="13.5" gradientUnits="userSpaceOnUse">
<stop stop-color="#D9D9D9"/>
<stop offset="1" stop-opacity="0.45"/>
</linearGradient>
</defs>
</svg>
