<svg width="78" height="120" viewBox="0 0 78 120" fill="none" xmlns="http://www.w3.org/2000/svg">
<path d="M39.75 12C57.6266 12 71.9998 27.5782 72 46.5146C72 53.5884 69.9943 60.4251 66.1777 66.2588L43 106.406C42.3246 107.582 41.0912 108.285 39.75 108.285C38.4088 108.285 37.1745 107.583 36.499 106.407V106.406L13.2998 66.2275C9.50694 60.4347 7.5 53.5924 7.5 46.5146C7.50018 27.5782 21.8734 12 39.75 12Z" fill="url(#paint0_linear_2594_27795)" stroke="white" stroke-width="3"/>
<path d="M49.0448 66.7062H40.5211V52.8475H45.761C46.1036 52.8475 46.3749 52.6381 46.3749 52.3735V51.9325C46.3749 51.6679 46.1036 51.4584 45.761 51.4584H34.239C33.8963 51.4584 33.6251 51.6679 33.6251 51.9325V52.3735C33.6251 52.6381 33.8963 52.8475 34.239 52.8475H39.4789V66.7062H30.9552C30.6696 66.7062 30.4412 66.8826 30.4412 67.1031C30.4412 67.3236 30.6696 67.5 30.9552 67.5H49.0448C49.3303 67.5 49.5588 67.3236 49.5588 67.1031C49.5588 66.8826 49.3303 66.7062 49.0448 66.7062Z" fill="white"/>
<path d="M30.244 50.0001H37.2562C38.3804 50.0001 39.3713 49.4826 40.0001 48.6695C40.6289 49.4826 41.6197 50.0001 42.744 50.0001H49.7562C51.2615 50.0001 52.5001 48.7989 52.5001 47.339V35.1611C52.5001 33.7012 51.2615 32.5001 49.7562 32.5001H42.744C41.6197 32.5001 40.6289 33.0175 40.0001 33.8306C39.3713 33.0175 38.3804 32.5001 37.2562 32.5001H30.244C28.7386 32.5001 27.5001 33.7012 27.5001 35.1611V47.339C27.5001 48.7989 28.7386 50.0001 30.244 50.0001Z" fill="white"/>
<defs>
<linearGradient id="paint0_linear_2594_27795" x1="39.75" y1="106.785" x2="39.75" y2="13.5" gradientUnits="userSpaceOnUse">
<stop stop-color="#FFC53D"/>
<stop offset="1" stop-color="#D48806"/>
</linearGradient>
</defs>
</svg>
