<svg width="78" height="120" viewBox="0 0 78 120" fill="none" xmlns="http://www.w3.org/2000/svg">
<path d="M39.75 12C57.6266 12 71.9998 27.5782 72 46.5146C72 53.5884 69.9943 60.4251 66.1777 66.2588L43 106.406C42.3246 107.582 41.0912 108.285 39.75 108.285C38.4088 108.285 37.1745 107.583 36.499 106.407V106.406L13.2998 66.2275C9.50694 60.4347 7.5 53.5924 7.5 46.5146C7.50018 27.5782 21.8734 12 39.75 12Z" fill="url(#paint0_linear_2594_27992)" stroke="white" stroke-width="3"/>
<path d="M44.868 62.6136H40.358H34.8396C34.5034 62.6136 34.2373 62.3573 34.2373 62.0336V61.4941C34.2373 61.1704 34.5034 60.9142 34.8396 60.9142H44.868C45.2042 60.9142 45.4703 61.1704 45.4703 61.4941V62.0336C45.4703 62.3573 45.2042 62.6136 44.868 62.6136Z" fill="white"/>
<path d="M55.3586 40.076H24.3488C23.3264 40.076 22.5 40.8717 22.5 41.8563V58.2571C22.5 59.2417 23.3264 60.0374 24.3488 60.0374H55.3586C56.3811 60.0374 57.2074 59.2417 57.2074 58.2571V41.8563C57.2074 40.8717 56.3811 40.076 55.3586 40.076Z" fill="white"/>
<path d="M44.8818 37.5H34.8393C34.5067 37.5 34.2371 37.7597 34.2371 38.08V38.6329C34.2371 38.9533 34.5067 39.2129 34.8393 39.2129H44.8818C45.2144 39.2129 45.4841 38.9533 45.4841 38.6329V38.08C45.4841 37.7597 45.2144 37.5 44.8818 37.5Z" fill="white"/>
<defs>
<linearGradient id="paint0_linear_2594_27992" x1="39.75" y1="106.785" x2="39.75" y2="13.5" gradientUnits="userSpaceOnUse">
<stop stop-color="#FFA940"/>
<stop offset="1" stop-color="#D46B08"/>
</linearGradient>
</defs>
</svg>
