<svg width="78" height="120" viewBox="0 0 78 120" fill="none" xmlns="http://www.w3.org/2000/svg">
<path d="M39.75 12C57.6266 12 71.9998 27.5782 72 46.5146C72 53.5884 69.9943 60.4251 66.1777 66.2588L43 106.406C42.3246 107.582 41.0912 108.285 39.75 108.285C38.4088 108.285 37.1745 107.583 36.499 106.407V106.406L13.2998 66.2275C9.50694 60.4347 7.5 53.5924 7.5 46.5146C7.50018 27.5782 21.8734 12 39.75 12Z" fill="url(#paint0_linear_2594_28149)" stroke="white" stroke-width="3"/>
<path d="M51.1239 40.725H50.8751V40.4827C50.8751 40.2 50.6524 39.9712 50.3774 39.9712H47.6405V37.8712L50.8882 36.5788C51.0846 36.4981 51.2155 36.3231 51.2548 36.1212C51.281 35.9058 51.2024 35.7038 51.0453 35.5692L47.431 32.6077C47.431 32.6077 47.3917 32.5942 47.3786 32.5808C47.3393 32.5538 47.3132 32.5404 47.2739 32.5269C47.2477 32.5269 47.2084 32.5 47.1822 32.5C47.1429 32.5 47.1036 32.5 47.0643 32.5C47.0251 32.5 46.9858 32.5 46.9465 32.5135C46.9334 32.5135 46.9072 32.5135 46.8941 32.5135L33.2751 37.1577C33.2751 37.1577 33.2227 37.1846 33.1965 37.1981C33.1703 37.1981 33.1441 37.2115 33.131 37.2385H33.1179L29.0191 40.1596C28.7572 40.3481 28.6917 40.7115 28.8751 40.9808C29.0584 41.25 29.412 41.3173 29.6739 41.1288L32.8822 38.8404V42.8519H30.0143C29.7263 42.8519 29.4905 43.0942 29.4905 43.3904V43.6327H29.2286C28.2727 43.6327 27.5001 44.4269 27.5001 45.4096V57.3635C27.5001 58.3462 28.2727 59.1404 29.2286 59.1404H29.4905V59.3827C29.4905 59.6788 29.7263 59.9212 30.0143 59.9212H33.0263V66.5712H28.7572C28.5215 66.5712 28.3251 66.7731 28.3251 67.0154C28.3251 67.2577 28.5215 67.4596 28.7572 67.4596H38.1596C38.3953 67.4596 38.5917 67.2577 38.5917 67.0154C38.5917 66.7731 38.3953 66.5712 38.1596 66.5712H33.8905V59.9212H36.9024C37.1905 59.9212 37.4263 59.6788 37.4263 59.3827V59.1404H37.6882C38.6441 59.1404 39.4167 58.3462 39.4167 57.3635V45.4096C39.4167 44.4269 38.6441 43.6327 37.6882 43.6327H37.4263V43.3904C37.4263 43.0942 37.1905 42.8519 36.9024 42.8519H34.0346V38.8673L37.6227 41.5596C37.7274 41.6404 37.8453 41.6673 37.9632 41.6673C38.0286 41.6673 38.1072 41.6673 38.1727 41.6269L46.5143 38.3154V39.9577H43.7905C43.5155 39.9577 43.2929 40.1865 43.2929 40.4692V40.7115H43.0441C42.1274 40.7115 41.381 41.4788 41.381 42.4212V53.9038C41.381 54.8462 42.1274 55.6135 43.0441 55.6135H43.2929V55.8558C43.2929 56.1385 43.5155 56.3673 43.7905 56.3673H46.6846V61.9H42.5858C42.3501 61.9 42.1667 62.0885 42.1667 62.3308C42.1667 62.5731 42.3501 62.7615 42.5858 62.7615H51.6084C51.8441 62.7615 52.0274 62.5731 52.0274 62.3308C52.0274 62.0885 51.8441 61.9 51.6084 61.9H47.5096V56.3673H50.4036C50.6786 56.3673 50.9013 56.1385 50.9013 55.8558V55.6135H51.1501C52.0667 55.6135 52.8132 54.8462 52.8132 53.9038V42.4346C52.8132 41.4923 52.0667 40.725 51.1501 40.725H51.1239Z" fill="white"/>
<defs>
<linearGradient id="paint0_linear_2594_28149" x1="39.75" y1="106.785" x2="39.75" y2="13.5" gradientUnits="userSpaceOnUse">
<stop stop-color="#D9D9D9"/>
<stop offset="1" stop-opacity="0.45"/>
</linearGradient>
</defs>
</svg>
